inDegrees=yes
name=ik_S42_A12_T02
DataType=double
version=3
OpenSimVersion=4.3-2021-08-27-4bc7ad9
endheader
time	pelvis_tilt	pelvis_list	pelvis_rotation	pelvis_tx	pelvis_ty	pelvis_tz	hip_flexion_r	hip_adduction_r	hip_rotation_r	knee_angle_r	knee_angle_r_beta	ankle_angle_r	subtalar_angle_r	mtp_angle_r	hip_flexion_l	hip_adduction_l	hip_rotation_l	knee_angle_l	knee_angle_l_beta	ankle_angle_l	subtalar_angle_l	mtp_angle_l	lumbar_extension	lumbar_bending	lumbar_rotation	arm_flex_r	arm_add_r	arm_rot_r	elbow_flex_r	pro_sup_r	wrist_flex_r	wrist_dev_r	arm_flex_l	arm_add_l	arm_rot_l	elbow_flex_l	pro_sup_l	wrist_flex_l	wrist_dev_l
5.139999999999978	-0.6489366851026184	2.266483513137763	16.09795210528388	0	0.9399999999999999	0	26.28410943372463	-8.738836334933701	-7.796673742078969	29.72206345218698	0.5187478677273351	0	0	0	26.28410943372463	-8.738836334933701	-7.796673742078969	29.72206345218698	0.5187478677273351	0	0	0	0.292332226238324	2.045519234751929	1.148997226723643	4.416838405568615	-4.162604211584603	-4.716427699349865	2.34480796912462	115.3286990072997	0	0	101.2122091291952	-50.94118309743664	26.15030373769444	80.06303841174855	3.141503768257076	0	0
5.159999999999978	-0.6444900482162828	2.285941588919365	16.07130355340956	0	0.9399999999999999	0	26.29139138468115	-8.740447047719146	-7.798480140490149	29.72932760951034	0.5188746511900105	0	0	0	26.29139138468115	-8.740447047719146	-7.798480140490149	29.72932760951034	0.5188746511900105	0	0	0	0.298814563649352	2.064423758618166	1.227324959358055	4.400956271626262	-4.199558061384126	-4.761149782347651	2.35941377874805	115.1867544961734	0	0	101.4962303624716	-50.46543757728963	26.23600134730775	80.01955220797917	3.044596475109754	0	0
5.179999999999978	-0.6392712879822445	2.295808915492282	15.96004779053281	0	0.9399999999999999	0	26.30233531734817	-8.742868962615145	-7.801196311276072	29.74023008624935	0.5190649353057284	0	0	0	26.30233531734817	-8.742868962615145	-7.801196311276072	29.74023008624935	0.5190649353057284	0	0	0	0.3035477821886574	2.073872140781788	1.304248147682182	4.370599033485188	-4.224674761446168	-4.720817290600304	2.365625498345179	115.0206002810372	0	0	101.8287677125153	-50.04210346914201	26.46281436170265	81.01128129149097	2.041551217359205	0	0
5.199999999999977	-0.6355024474896436	2.313338570384437	15.84489849036636	0	0.9399999999999999	0	26.31108666886103	-8.744802791736221	-7.803366685392656	29.74895208432907	0.5192171628895721	0	0	0	26.31108666886103	-8.744802791736221	-7.803366685392656	29.74895208432907	0.5192171628895721	0	0	0	0.307155105341918	2.091740629957689	1.421322989786039	4.338194421276517	-4.257518103183538	-4.764716949071208	2.375835992238904	114.9763003534811	0	0	102.1093685717255	-49.08661229214483	26.8932371212176	81.37822330340053	1.646946115700979	0	0
5.219999999999977	-0.6229571534048917	2.325979238146807	15.75106717340095	0	0.9399999999999999	0	26.32160496051021	-8.747126875398232	-7.805975627480437	29.75942634488033	0.5193999732229033	0	0	0	26.32160496051021	-8.747126875398232	-7.805975627480437	29.75942634488033	0.5193999732229033	0	0	0	0.3216539206326857	2.101031272900357	1.442621049488234	4.304127637691708	-4.242599249482704	-4.744227464160057	2.403699930283421	114.8883861608876	0	0	102.207105085749	-48.77075356358136	27.17821336204058	81.8000131267236	1.130284258185434	0	0
5.239999999999976	-0.6215801658000709	2.344765949410374	15.67989532627444	0	0.9399999999999999	0	26.32788584216735	-8.748511288817333	-7.80753141158245	29.76568923511915	0.5195092812782618	0	0	0	26.32788584216735	-8.748511288817333	-7.80753141158245	29.76568923511915	0.5195092812782618	0	0	0	0.3263144612919181	2.119541504979133	1.483926451093552	4.303405988861629	-4.272829084245684	-4.785297357350904	2.389862561721332	114.8376111103971	0	0	102.2656304659469	-48.36672819672527	27.29146206086773	82.12419223985189	0.6586580094194515	0	0
5.259999999999976	-0.6431333691796621	2.353011313906678	15.61080771757931	0	0.9399999999999999	0	26.33533376692748	-8.750149895149342	-7.809374402040435	29.77312270204227	0.5196390197509082	0	0	0	26.33533376692748	-8.750149895149342	-7.809374402040435	29.77312270204227	0.5196390197509082	0	0	0	0.308186499858668	2.133338046623127	1.471393384690691	4.36113297710559	-4.308742597388143	-4.770291577758218	2.385126668834239	114.8110697781372	0	0	102.3330893318774	-48.50450134009137	27.31251732233149	82.53947057151412	0.1999215757914256	0	0
5.279999999999975	-0.637004971873483	2.353079905260607	15.4929720322782	0	0.9399999999999999	0	26.3457740928711	-8.752448308435005	-7.811959323360268	29.78352854792837	0.5198206360230758	0	0	0	26.3457740928711	-8.752448308435005	-7.811959323360268	29.78352854792837	0.5198206360230758	0	0	0	0.3105664577860293	2.133659714457698	1.551789936328093	4.347196884478723	-4.311882956646366	-4.798674150139061	2.395995876702675	114.7462878605041	0	0	102.5937354050084	-47.62899400526561	27.44553089648309	81.61693259790475	0.8182413969757522	0	0
5.299999999999975	-0.6269266798367228	2.364168102371885	15.37679182940442	0	0.9399999999999999	0	26.35814848275641	-8.755171222880897	-7.815022922808753	29.7958532322435	0.5200357423436437	0	0	0	26.35814848275641	-8.755171222880897	-7.815022922808753	29.7958532322435	0.5200357423436437	0	0	0	0.3206460626936886	2.14274437935003	1.613769235634052	4.309859132926219	-4.332240018810089	-4.804807896275657	2.421933348592031	114.6901334066933	0	0	102.8416100991679	-47.30441176110402	27.55291817149681	82.68336411062057	-0.5958202814576379	0	0
5.319999999999975	-0.6124953861315229	2.364918878846975	15.2441235530187	0	0.9399999999999999	0	26.37363847681813	-8.758569638585753	-7.818851850019121	29.81130025058508	0.5203053436733203	0	0	0	26.37363847681813	-8.758569638585753	-7.818851850019121	29.81130025058508	0.5203053436733203	0	0	0	0.3317205768324887	2.139759014092601	1.682496202223253	4.264690810949288	-4.333102790118537	-4.777156355150114	2.431612199683728	114.6313940734116	0	0	102.935418660491	-47.43639605481223	27.61237665237822	84.1795028740846	-2.518282724156192	0	0
5.339999999999974	-0.6151938314083158	2.364509759405741	15.1821957407367	0	0.9399999999999999	0	26.37870991891399	-8.759678956077547	-7.820103319204867	29.81636654512207	0.5203937671938665	0	0	0	26.37870991891399	-8.759678956077547	-7.820103319204867	29.81636654512207	0.5203937671938665	0	0	0	0.3271041785480916	2.140952611349558	1.728744557174946	4.256711479630408	-4.370712996780085	-4.787732198682711	2.452276349070918	114.5846635892986	0	0	103.094563565256	-46.97460057329577	27.58499097923225	84.09892333968467	-2.503003299850537	0	0
5.359999999999974	-0.600808060637955	2.355240944813168	15.07263737723364	0	0.9399999999999999	0	26.3834214627438	-8.760708880369448	-7.82126561902753	29.8210737486555	0.5204759233940863	0	0	0	26.3834214627438	-8.760708880369448	-7.82126561902753	29.8210737486555	0.5204759233940863	0	0	0	0.3375348960779669	2.128737253565835	1.755118948330741	4.208934174905476	-4.361233122519239	-4.725658781700979	2.469833806095224	114.5074830973279	0	0	103.252924872664	-46.52119876430865	27.50329577512267	84.27706966559947	-2.633700876905789	0	0
5.379999999999973	-0.5952564329978753	2.365201126397161	14.95767815703219	0	0.9399999999999999	0	26.39313719889154	-8.762827248978651	-7.823659007731655	29.83079370232287	0.5206455685887234	0	0	0	26.39313719889154	-8.762827248978651	-7.823659007731655	29.83079370232287	0.5206455685887234	0	0	0	0.3445352622512463	2.137383062707639	1.776384431146574	4.171179285625609	-4.377841683251223	-4.59008293824525	2.50717930330805	114.3635408047499	0	0	103.316773283382	-46.68687200950587	27.54491947370686	85.25530374911065	-3.745473183753449	0	0
5.399999999999973	-0.5965257689443776	2.369728401992777	14.81565519182531	0	0.9399999999999999	0	26.39817872968571	-8.763926705485611	-7.824901237301531	29.83583392449746	0.5207335370607019	0	0	0	26.39817872968571	-8.763926705485611	-7.824901237301531	29.83583392449746	0.5207335370607019	0	0	0	0.3407034836919723	2.143571598346202	1.864205950668404	4.19107759009298	-4.3921326417487	-4.465492448117788	2.51607267944191	114.2621704435065	0	0	103.5928315264698	-45.81260030942428	27.3167424264057	85.171130092737	-4.011753905027706	0	0
5.419999999999972	-0.5864592795572017	2.374019563974454	14.78118139225774	0	0.9399999999999999	0	26.43948505145185	-8.769818709171167	-7.833201019233763	29.87817469648296	0.521472522939685	0	0	0	26.43948505145185	-8.769818709171167	-7.833201019233763	29.87817469648296	0.521472522939685	0	0	0	0.3507131329333381	2.145685276983069	1.870452977972164	4.168597410203471	-4.386063913207345	-4.446448775578799	2.486317014134526	114.2496709688386	0	0	103.6284172906053	-45.83814359847079	27.33407311116761	85.4446094211017	-4.378881759994686	0	0
5.439999999999972	-0.5692793667590514	2.377871429193889	14.64838106558496	0	0.9399999999999999	0	26.44981958117046	-8.772054951122893	-7.835735772337646	29.88854937943628	0.521653595316071	0	0	0	26.44981958117046	-8.772054951122893	-7.835735772337646	29.88854937943628	0.521653595316071	0	0	0	0.366275974074848	2.145918521309554	1.917071821878873	4.139432219297897	-4.396402217855503	-4.366933312358112	2.546863920845987	114.2724881637171	0	0	103.679178541095	-46.00121856287623	27.39920102175794	86.6455156116487	-5.017799603832358	0	0
